# Blender v2.77 (sub 0) OBJ File: 'block-3-b.blend'
# www.blender.org
mtllib block-3-b.mtl
o Cube
v 0.100000 0.010000 -0.100000
v -0.100000 0.010000 0.100000
v 0.100000 0.010000 0.100000
v -0.100000 0.010000 -0.100000
v -0.100000 0.030000 0.100000
v 0.100000 0.030000 0.100000
v -0.100000 0.030000 -0.100000
v 0.100000 0.030000 -0.100000
v -0.092500 0.030000 0.092500
v -0.092500 0.030000 -0.092500
v 0.092500 0.030000 0.092500
v 0.092500 0.030000 -0.092500
v -0.092500 0.040000 0.092500
v -0.092500 0.040000 -0.092500
v 0.092500 0.040000 0.092500
v 0.092500 0.040000 -0.092500
v -0.092500 0.010000 0.092500
v 0.092500 0.010000 0.092500
v -0.092500 0.010000 -0.092500
v 0.092500 0.010000 -0.092500
v -0.092500 0.000000 0.092500
v 0.092500 0.000000 0.092500
v -0.092500 0.000000 -0.092500
v 0.092500 0.000000 -0.092500
v -0.065000 0.040000 0.065000
v -0.065000 0.040000 -0.065000
v 0.065000 0.040000 0.065000
v 0.065000 0.040000 -0.065000
v -0.065000 0.030000 0.065000
v -0.065000 0.030000 -0.065000
v 0.065000 0.030000 0.065000
v 0.065000 0.030000 -0.065000
v -0.065000 0.000000 0.065000
v 0.065000 0.000000 0.065000
v -0.065000 0.000000 -0.065000
v 0.065000 0.000000 -0.065000
v -0.065000 0.010000 0.065000
v 0.065000 0.010000 0.065000
v -0.065000 0.010000 -0.065000
v 0.065000 0.010000 -0.065000
v 0.300000 0.010000 -0.100000
v 0.100000 0.030000 -0.300000
v 0.300000 0.010000 0.100000
v 0.300000 0.030000 0.100000
v 0.100000 0.010000 -0.300000
v 0.300000 0.030000 -0.100000
v 0.107500 0.030000 0.092500
v 0.107500 0.030000 -0.092500
v 0.292500 0.030000 0.092500
v 0.292500 0.030000 -0.092500
v 0.107500 0.040000 0.092500
v 0.107500 0.040000 -0.092500
v 0.292500 0.040000 0.092500
v 0.292500 0.040000 -0.092500
v 0.107500 0.010000 0.092500
v 0.292500 0.010000 0.092500
v 0.107500 0.010000 -0.092500
v 0.292500 0.010000 -0.092500
v 0.107500 0.000000 0.092500
v 0.292500 0.000000 0.092500
v 0.107500 0.000000 -0.092500
v 0.292500 0.000000 -0.092500
v 0.135000 0.040000 0.065000
v 0.135000 0.040000 -0.065000
v 0.265000 0.040000 0.065000
v 0.265000 0.040000 -0.065000
v 0.135000 0.030000 0.065000
v 0.135000 0.030000 -0.065000
v 0.265000 0.030000 0.065000
v 0.265000 0.030000 -0.065000
v 0.135000 0.000000 0.065000
v 0.265000 0.000000 0.065000
v 0.135000 0.000000 -0.065000
v 0.265000 0.000000 -0.065000
v 0.135000 0.010000 0.065000
v 0.265000 0.010000 0.065000
v 0.135000 0.010000 -0.065000
v 0.265000 0.010000 -0.065000
v 0.300000 0.010000 -0.300000
v 0.300000 0.030000 -0.300000
v 0.107500 0.030000 -0.107500
v 0.107500 0.030000 -0.292500
v 0.292500 0.030000 -0.107500
v 0.292500 0.030000 -0.292500
v 0.107500 0.040000 -0.107500
v 0.107500 0.040000 -0.292500
v 0.292500 0.040000 -0.107500
v 0.292500 0.040000 -0.292500
v 0.107500 0.010000 -0.107500
v 0.292500 0.010000 -0.107500
v 0.107500 0.010000 -0.292500
v 0.292500 0.010000 -0.292500
v 0.107500 0.000000 -0.107500
v 0.292500 0.000000 -0.107500
v 0.107500 0.000000 -0.292500
v 0.292500 0.000000 -0.292500
v 0.135000 0.040000 -0.135000
v 0.135000 0.040000 -0.265000
v 0.265000 0.040000 -0.135000
v 0.265000 0.040000 -0.265000
v 0.135000 0.030000 -0.135000
v 0.135000 0.030000 -0.265000
v 0.265000 0.030000 -0.135000
v 0.265000 0.030000 -0.265000
v 0.135000 0.000000 -0.135000
v 0.265000 0.000000 -0.135000
v 0.135000 0.000000 -0.265000
v 0.265000 0.000000 -0.265000
v 0.135000 0.010000 -0.135000
v 0.265000 0.010000 -0.135000
v 0.135000 0.010000 -0.265000
v 0.265000 0.010000 -0.265000
vn 0.0000 0.0000 -1.0000
vn 0.0000 0.0000 1.0000
vn 1.0000 0.0000 0.0000
vn -1.0000 0.0000 0.0000
vn 0.0000 1.0000 0.0000
vn 0.0000 -1.0000 0.0000
usemtl Material
s off
f 1//1 4//1 7//1 8//1
f 2//2 3//2 6//2 5//2
f 3//3 1//3 8//3 6//3
f 4//4 2//4 5//4 7//4
f 10//5 12//5 8//5 7//5
f 5//5 9//5 10//5 7//5
f 5//5 6//5 11//5 9//5
f 12//1 10//1 14//1 16//1
f 11//5 6//5 8//5 12//5
f 11//3 12//3 16//3 15//3
f 10//4 9//4 13//4 14//4
f 9//2 11//2 15//2 13//2
f 18//6 20//6 1//6 3//6
f 2//6 17//6 18//6 3//6
f 2//6 4//6 19//6 17//6
f 18//2 17//2 21//2 22//2
f 19//6 4//6 1//6 20//6
f 17//4 19//4 23//4 21//4
f 20//3 18//3 22//3 24//3
f 19//1 20//1 24//1 23//1
f 26//5 28//5 16//5 14//5
f 13//5 25//5 26//5 14//5
f 13//5 15//5 27//5 25//5
f 25//1 27//1 31//1 29//1
f 27//5 15//5 16//5 28//5
f 29//5 31//5 32//5 30//5
f 27//4 28//4 32//4 31//4
f 28//2 26//2 30//2 32//2
f 26//3 25//3 29//3 30//3
f 34//6 36//6 24//6 22//6
f 21//6 33//6 34//6 22//6
f 21//6 23//6 35//6 33//6
f 34//1 33//1 37//1 38//1
f 35//6 23//6 24//6 36//6
f 37//6 39//6 40//6 38//6
f 33//3 35//3 39//3 37//3
f 35//2 36//2 40//2 39//2
f 36//4 34//4 38//4 40//4
f 41//1 1//1 8//1 46//1
f 3//2 43//2 44//2 6//2
f 43//3 41//3 46//3 44//3
f 1//3 45//3 42//3 8//3
f 48//5 50//5 46//5 8//5
f 6//5 47//5 48//5 8//5
f 6//5 44//5 49//5 47//5
f 50//1 48//1 52//1 54//1
f 49//5 44//5 46//5 50//5
f 49//3 50//3 54//3 53//3
f 48//4 47//4 51//4 52//4
f 47//2 49//2 53//2 51//2
f 56//6 58//6 41//6 43//6
f 3//6 55//6 56//6 43//6
f 3//6 1//6 57//6 55//6
f 56//2 55//2 59//2 60//2
f 57//6 1//6 41//6 58//6
f 55//4 57//4 61//4 59//4
f 58//3 56//3 60//3 62//3
f 57//1 58//1 62//1 61//1
f 64//5 66//5 54//5 52//5
f 51//5 63//5 64//5 52//5
f 51//5 53//5 65//5 63//5
f 63//1 65//1 69//1 67//1
f 65//5 53//5 54//5 66//5
f 67//5 69//5 70//5 68//5
f 65//4 66//4 70//4 69//4
f 66//2 64//2 68//2 70//2
f 64//3 63//3 67//3 68//3
f 72//6 74//6 62//6 60//6
f 59//6 71//6 72//6 60//6
f 59//6 61//6 73//6 71//6
f 72//1 71//1 75//1 76//1
f 73//6 61//6 62//6 74//6
f 75//6 77//6 78//6 76//6
f 71//3 73//3 77//3 75//3
f 73//2 74//2 78//2 77//2
f 74//4 72//4 76//4 78//4
f 79//1 45//1 42//1 80//1
f 41//3 79//3 80//3 46//3
f 82//5 84//5 80//5 42//5
f 8//5 81//5 82//5 42//5
f 8//5 46//5 83//5 81//5
f 84//1 82//1 86//1 88//1
f 83//5 46//5 80//5 84//5
f 83//3 84//3 88//3 87//3
f 82//4 81//4 85//4 86//4
f 81//2 83//2 87//2 85//2
f 90//6 92//6 79//6 41//6
f 1//6 89//6 90//6 41//6
f 1//6 45//6 91//6 89//6
f 90//2 89//2 93//2 94//2
f 91//6 45//6 79//6 92//6
f 89//4 91//4 95//4 93//4
f 92//3 90//3 94//3 96//3
f 91//1 92//1 96//1 95//1
f 98//5 100//5 88//5 86//5
f 85//5 97//5 98//5 86//5
f 85//5 87//5 99//5 97//5
f 97//1 99//1 103//1 101//1
f 99//5 87//5 88//5 100//5
f 101//5 103//5 104//5 102//5
f 99//4 100//4 104//4 103//4
f 100//2 98//2 102//2 104//2
f 98//3 97//3 101//3 102//3
f 106//6 108//6 96//6 94//6
f 93//6 105//6 106//6 94//6
f 93//6 95//6 107//6 105//6
f 106//1 105//1 109//1 110//1
f 107//6 95//6 96//6 108//6
f 109//6 111//6 112//6 110//6
f 105//3 107//3 111//3 109//3
f 107//2 108//2 112//2 111//2
f 108//4 106//4 110//4 112//4
